HIERARCHY
ROOT pelvis
{
  OFFSET 0 100 0
  CHANNELS 6 Xposition Yposition Zposition Zrotation Xrotation Yrotation
  JOINT pelvis_right_femur
  {
    OFFSET -10.78128 -3.44521 -0.5502486
    CHANNELS 3 Zrotation Xrotation Yrotation
    JOINT right_femur_tibia
    {
      OFFSET -0.8047443 -44.0398 -0.1307829
      CHANNELS 3 Zrotation Xrotation Yrotation
      JOINT right_tibia_foot
      {
        OFFSET 3.006224 -47.83518 -5
        CHANNELS 3 Zrotation Xrotation Yrotation
        End Site
        {
          OFFSET 0 -5 15
        }
      }
    }
  }
  JOINT pelvis_left_femur
  {
    OFFSET 10.78128 -3.44521 -0.5502486
    CHANNELS 3 Zrotation Xrotation Yrotation
    JOINT left_femur_tibia
    {
      OFFSET 0.8047443 -44.0398 -0.1307829
      CHANNELS 3 Zrotation Xrotation Yrotation
      JOINT left_tibia_foot
      {
        OFFSET -4.370144 -48.10324 -4.275266
        CHANNELS 3 Zrotation Xrotation Yrotation
        End Site
        {
          OFFSET 0 -5 15
        }
      }
    }
  }
  JOINT pelvis_spine1
  {
    OFFSET 0 6.468898 -3.129235
    CHANNELS 3 Zrotation Xrotation Yrotation
    JOINT spine1
    {
      OFFSET 0 23.15396 4.99043
      CHANNELS 3 Zrotation Xrotation Yrotation
      JOINT spine2
      {
        OFFSET 0 20.79997 -5.064912
        CHANNELS 3 Zrotation Xrotation Yrotation
        JOINT neck
        {
          OFFSET 0 14.38658 9.616178
          CHANNELS 3 Zrotation Xrotation Yrotation
          End Site
          {
            OFFSET 0 20 0
          }
        }
      }
      JOINT right_manubrium
      {
        OFFSET -5.722621 16.35077 3.967754
        CHANNELS 3 Zrotation Xrotation Yrotation
        JOINT right_clavicle
        {
          OFFSET -13.16364 1.694482 -4.693211
          CHANNELS 3 Zrotation Xrotation Yrotation
          JOINT right_humerus
          {
            OFFSET -28.5034 -0.3100689 -2.792744
            CHANNELS 3 Zrotation Xrotation Yrotation
            JOINT right_radius
            {
              OFFSET -25.15693 0.02248979 -1.271978
              CHANNELS 3 Zrotation Xrotation Yrotation
              End Site
              {
                OFFSET -15 0 0
              }
            }
          }
        }
      }
      JOINT left_manubrium
      {
        OFFSET 5.722621 16.35077 3.967754
        CHANNELS 3 Zrotation Xrotation Yrotation
        JOINT left_clavicle
        {
          OFFSET 13.16364 1.694482 -4.693211
          CHANNELS 3 Zrotation Xrotation Yrotation
          JOINT left_humerus
          {
            OFFSET 29.39168 -1.063119 -2.237045
            CHANNELS 3 Zrotation Xrotation Yrotation
            JOINT left_radius
            {
              OFFSET 24.59957 -0.9528479 0.9047498
              CHANNELS 3 Zrotation Xrotation Yrotation
              End Site
              {
                OFFSET 15 -0 -0
              }
            }
          }
        }
      }
    }
  }
}
MOTION
Frames: 11
Frame Time: 0.0416666666667
0 103.5113 0 1.985134 0.3792609 -0.03519562 3.740581 -18.40222 11.16755 -0 39.461 -0 -3.975965 -17.79514 -2.565979 -8.715472 9.767763 -24.46936 -0 6.210335 -0 21.57417 -7.882052 30.74266 -4.047107 -3.505326 5.914545 2.345319 10.18881 -6.308905 2.342066 22.22907 5.836027 2.293369 -25.57513 10.38594 5.863872 -21.12493 11.51785 87.08446 40.06382 -17.36291 -0 0 15.22636 -4.005344 6.909212 5.177297 3.041586 -16.20992 -4.072697 -90.3692 23.21619 19.7754 0 0 -19.16179 16.22214 10.87832 -2.230732
0.3189965 103.657 1.695915 1.734413 0.6293487 -0.0828255 4.061814 -19.68098 11.08423 -0 38.80249 -0 -4.510354 -16.72558 -2.523755 -8.501544 9.649061 -24.01071 -0 6.072682 -0 21.69251 -8.134458 30.50086 -4.017986 -3.205397 5.725447 2.498613 10.36239 -6.578262 2.15639 21.80844 6.18589 2.713033 -25.71763 10.20487 6.217088 -21.11955 11.73209 86.84531 40.63102 -17.3834 -0 0 15.20003 -4.42828 7.296424 5.444825 3.251271 -16.63142 -4.063913 -90.16493 22.59887 19.48454 0 0 -19.29701 16.1814 10.30079 -2.435906
0.7168888 102.447 4.344357 2.028005 0.02250628 0.1799161 2.047074 -23.30931 4.860733 -0 22.59594 -0 -4.410328 -10.11781 -1.243325 -8.412682 11.30191 -18.93222 0 -0.3280452 0 17.04613 -15.97398 26.6428 -4.431276 -2.189466 5.324241 3.200665 10.04036 -7.059903 1.58854 22.65987 6.153278 2.178409 -26.48587 9.568382 3.036326 -21.03158 11.3914 89.51596 32.22496 -20.55907 -0 0 10.70886 -8.375488 5.458751 7.630385 4.139645 -19.34473 -5.129583 -89.64596 23.76737 18.97258 0 0 -22.98551 13.62806 12.3082 0.4833918
1.120954 101.0567 7.172605 2.344881 -0.2944725 0.5171025 1.481902 -22.84986 3.65512 -0 20.06355 -0 -4.086727 -10.04431 -0.9777122 -8.585927 11.85446 -18.42934 0 -1.263641 0 15.88929 -17.27097 26.04005 -4.524171 -2.339245 5.432046 3.092739 9.810391 -6.863597 1.694657 23.26822 5.758154 1.668083 -26.31002 9.605844 2.163252 -20.90916 11.12407 90.33148 30.38228 -21.09487 -0 0 9.825978 -8.750024 4.956661 7.603396 4.201978 -19.60468 -5.316478 -89.50884 24.45918 18.76944 0 0 -23.84934 13.46122 13.51636 0.7861642
1.536004 99.62885 10.05589 2.667289 -0.3962886 0.8945475 1.159397 -21.78237 3.351391 -0 18.9637 -0 -3.567051 -10.47782 -0.9096097 -8.863099 12.06796 -18.43153 0 -1.3593 0 15.30634 -17.81588 25.88968 -4.649545 -2.727509 5.682857 3.054662 9.700328 -6.748589 1.83146 23.71813 5.310847 1.114636 -26.37233 9.701713 1.597596 -20.96285 10.91254 90.8481 29.21177 -21.52149 -0 0 9.480631 -8.606273 4.55349 7.471628 4.051588 -19.53843 -5.326226 -89.74725 25.23489 19.18823 0 0 -24.20226 13.14192 14.43881 1.414711
1.97135 98.13233 12.99935 2.864019 -0.5454371 1.311232 0.9089436 -21.38258 2.811385 -0 17.97666 -0 -3.498723 -10.5191 -0.7568389 -8.963469 12.26292 -18.23454 0 -1.683312 0 14.70103 -18.38397 25.60936 -4.694018 -2.870168 5.778716 2.928763 9.640297 -6.655753 1.89329 24.01861 5.082521 0.8742917 -26.17443 9.684033 1.251662 -20.89912 10.79319 91.24489 28.52912 -21.76181 -0 0 9.149841 -8.813887 4.436296 7.374645 4.136135 -19.7496 -5.385883 -89.6139 25.48237 19.0095 0 0 -24.68502 13.17685 15.14822 1.392256
2.431084 96.56291 16.0209 2.975346 -0.6796553 1.754442 0.7184103 -21.38813 2.182076 -0 16.97976 -0 -3.614765 -10.27536 -0.5829029 -8.977375 12.45299 -17.91851 0 -2.022731 0 14.12322 -18.93413 25.24731 -4.697337 -2.881154 5.785965 2.801978 9.609213 -6.600562 1.905306 24.19931 4.990793 0.8086767 -25.91333 9.611416 1.018531 -20.78887 10.72963 91.54281 28.06409 -21.92042 -0 0 8.832855 -9.189191 4.447375 7.335322 4.316882 -20.06675 -5.466129 -89.32332 25.45197 18.5789 0 0 -25.20067 13.31899 15.63544 1.128072
2.917188 94.92821 19.12232 3.045549 -0.7893902 2.216366 0.569937 -21.53316 1.581103 -0 16.06937 -0 -3.776276 -9.935449 -0.4199305 -8.962124 12.62556 -17.58634 0 -2.2878 0 13.60673 -19.41214 24.8799 -4.68402 -2.849523 5.760451 2.691608 9.595202 -6.568555 1.896898 24.3136 4.957844 0.813129 -25.65991 9.523719 0.8468107 -20.67378 10.69341 91.77147 27.71116 -22.03793 -0 0 8.55521 -9.592729 4.50308 7.325363 4.511734 -20.38761 -5.545512 -89.00788 25.31458 18.10433 0 0 -25.67868 13.4769 15.98119 0.8114016
3.431084 93.24147 22.29784 3.090462 -0.8658548 2.690983 0.4595335 -21.70916 1.066874 -0 15.27774 -0 -3.926695 -9.578901 -0.2840837 -8.939653 12.77466 -17.27937 0 -2.455072 0 13.16148 -19.80941 24.5407 -4.665596 -2.813293 5.725581 2.609435 9.592516 -6.557414 1.880024 24.38413 4.94907 0.8385163 -25.4561 9.439952 0.7134777 -20.57364 10.67233 91.94611 27.41934 -22.13856 -0 0 8.322514 -9.959969 4.566343 7.334102 4.683488 -20.67034 -5.610436 -88.73319 25.15775 17.68795 0 0 -26.08167 13.5982 16.22752 0.5416582
3.973735 91.51398 25.53966 3.118938 -0.9136649 3.174744 0.3791489 -21.88278 0.6391021 -0 14.59521 -0 -4.05544 -9.234814 -0.1741007 -8.916316 12.90299 -17.00543 0 -2.544176 0 12.77762 -20.13983 24.23572 -4.645976 -2.782304 5.689291 2.551812 9.596505 -6.561328 1.859935 24.42618 4.950712 0.8680843 -25.30175 9.365045 0.6060308 -20.49005 10.65992 92.08167 27.16774 -22.23037 -0 0 8.127806 -10.27926 4.626643 7.353162 4.827686 -20.91147 -5.65983 -88.50734 25.00938 17.34324 0 0 -26.41354 13.67945 16.40715 0.3319215
4.54588 89.75503 28.84025 3.134823 -0.9366901 3.665218 0.3234396 -22.0463 0.2885407 -0 14.00337 -0 -4.161939 -8.911078 -0.08686777 -8.893705 13.01443 -16.76286 0 -2.573883 0 12.44443 -20.41821 23.96299 -4.626662 -2.758546 5.653984 2.515485 9.604232 -6.577043 1.838653 24.4478 4.957271 0.8955311 -25.19294 9.300173 0.5172185 -20.42156 10.653 92.18787 26.94444 -22.31777 -0 0 7.963233 -10.55135 4.680635 7.378763 4.9459 -21.11457 -5.694487 -88.32792 24.87985 17.06719 0 0 -26.68293 13.72261 16.53897 0.1815567
